<svg width="620" height="120" xmlns="http://www.w3.org/2000/svg">
  <style>
    .grid { fill: none; stroke: #333; stroke-width: 1; }
    .panel { fill: white; stroke: black; stroke-width: 2; }
    .shape { fill: black; }
    .center-line { stroke: black; stroke-width: 3; stroke-linecap: round; }
    .q-mark { font-family: Arial, sans-serif; font-size: 80px; fill: #ccc; text-anchor: middle; dominant-baseline: central; }
  </style>

  <!-- Panel 1 -->
  <g transform="translate(10, 10)">
    <rect class="panel" x="0" y="0" width="100" height="100"/>
    <path class="grid" d="M 5,35 h 90 M 5,65 h 90 M 35,5 v 90 M 65,5 v 90"/>
    <!-- Black Square at top-left -->
    <rect class="shape" x="10" y="10" width="20" height="20"/>
    <!-- Black Circle at bottom-right -->
    <circle class="shape" cx="80" cy="80" r="10"/>
    <!-- Center Line at 0 deg -->
    <line class="center-line" x1="40" y1="50" x2="60" y2="50" transform="rotate(0 50 50)"/>
  </g>

  <!-- Panel 2 -->
  <g transform="translate(130, 10)">
    <rect class="panel" x="0" y="0" width="100" height="100"/>
    <path class="grid" d="M 5,35 h 90 M 5,65 h 90 M 35,5 v 90 M 65,5 v 90"/>
    <!-- Black Square at top-middle -->
    <rect class="shape" x="40" y="10" width="20" height="20"/>
    <!-- Black Circle at bottom-middle -->
    <circle class="shape" cx="50" cy="80" r="10"/>
    <!-- Center Line at 45 deg -->
    <line class="center-line" x1="40" y1="50" x2="60" y2="50" transform="rotate(45 50 50)"/>
  </g>

  <!-- Panel 3 -->
  <g transform="translate(250, 10)">
    <rect class="panel" x="0" y="0" width="100" height="100"/>
    <path class="grid" d="M 5,35 h 90 M 5,65 h 90 M 35,5 v 90 M 65,5 v 90"/>
    <!-- Black Square at top-right -->
    <rect class="shape" x="70" y="10" width="20" height="20"/>
    <!-- Black Circle at bottom-left -->
    <circle class="shape" cx="20" cy="80" r="10"/>
    <!-- Center Line at 90 deg -->
    <line class="center-line" x1="40" y1="50" x2="60" y2="50" transform="rotate(90 50 50)"/>
  </g>

  <!-- Panel 4 -->
  <g transform="translate(370, 10)">
    <rect class="panel" x="0" y="0" width="100" height="100"/>
    <path class="grid" d="M 5,35 h 90 M 5,65 h 90 M 35,5 v 90 M 65,5 v 90"/>
    <!-- Black Square at middle-right -->
    <rect class="shape" x="70" y="40" width="20" height="20"/>
    <!-- Black Circle at middle-left -->
    <circle class="shape" cx="20" cy="50" r="10"/>
    <!-- Center Line at 135 deg -->
    <line class="center-line" x1="40" y1="50" x2="60" y2="50" transform="rotate(135 50 50)"/>
  </g>

  <!-- Panel 5 (Question Mark) -->
  <g transform="translate(490, 10)">
    <rect class="panel" x="0" y="0" width="100" height="100"/>
    <text class="q-mark" x="50" y="55">?</text>
  </g>
</svg>