<svg width="502" height="102" xmlns="http://www.w3.org/2000/svg"><rect x="1" y="1" width="500" height="100" fill="white" stroke="black" stroke-width="2"/><line x1="101" y1="1" x2="101" y2="101" stroke="black" stroke-width="2"/><line x1="201" y1="1" x2="201" y2="101" stroke="black" stroke-width="2"/><line x1="301" y1="1" x2="301" y2="101" stroke="black" stroke-width="2"/><line x1="401" y1="1" x2="401" y2="101" stroke="black" stroke-width="2"/><defs><g id="grid"><rect x="0" y="0" width="90" height="90" fill="none" stroke="black" stroke-width="1"/><line x1="30" y1="0" x2="30" y2="90" stroke="black" stroke-width="1"/><line x1="60" y1="0" x2="60" y2="90" stroke="black" stroke-width="1"/><line x1="0" y1="30" x2="90" y2="30" stroke="black" stroke-width="1"/><line x1="0" y1="60" x2="90" y2="60" stroke="black" stroke-width="1"/></g></defs><g transform="translate(6, 6)"><use href="#grid"/><rect x="60" y="60" width="30" height="30" fill="black"/></g><g transform="translate(106, 6)"><use href="#grid"/><rect x="30" y="60" width="30" height="30" fill="black"/></g><g transform="translate(206, 6)"><use href="#grid"/><rect x="0" y="60" width="30" height="30" fill="black"/></g><g transform="translate(306, 6)"><use href="#grid"/><rect x="0" y="30" width="30" height="30" fill="black"/></g><text x="451" y="65" font-family="Arial, sans-serif" font-size="50" fill="lightgray" text-anchor="middle">?</text></svg>