<svg width="520" height="120" xmlns="http://www.w3.org/2000/svg">
  <!-- Outer Frame -->
  <rect x="10" y="10" width="500" height="100" fill="white" stroke="black" stroke-width="2"/>
  <!-- Dividers -->
  <line x1="110" y1="10" x2="110" y2="110" stroke="black" stroke-width="2"/>
  <line x1="210" y1="10" x2="210" y2="110" stroke="black" stroke-width="2"/>
  <line x1="310" y1="10" x2="310" y2="110" stroke="black" stroke-width="2"/>
  <line x1="410" y1="10" x2="410" y2="110" stroke="black" stroke-width="2"/>

  <defs>
    <g id="grid_template">
        <rect x="0" y="0" width="25" height="25" stroke="black" fill="white" stroke-width="1.5"/>
        <rect x="27" y="0" width="25" height="25" stroke="black" fill="white" stroke-width="1.5"/>
        <rect x="54" y="0" width="25" height="25" stroke="black" fill="white" stroke-width="1.5"/>
        <rect x="0" y="27" width="25" height="25" stroke="black" fill="white" stroke-width="1.5"/>
        <rect x="27" y="27" width="25" height="25" stroke="black" fill="white" stroke-width="1.5"/>
        <rect x="54" y="27" width="25" height="25" stroke="black" fill="white" stroke-width="1.5"/>
        <rect x="0" y="54" width="25" height="25" stroke="black" fill="white" stroke-width="1.5"/>
        <rect x="27" y="54" width="25" height="25" stroke="black" fill="white" stroke-width="1.5"/>
        <rect x="54" y="54" width="25" height="25" stroke="black" fill="white" stroke-width="1.5"/>
    </g>
  </defs>

  <!-- Frame 1 -->
  <use href="#grid_template" x="20.5" y="20.5"/>
  <rect x="20.5+54" y="20.5+54" width="25" height="25" fill="black" stroke-width="1.5" stroke="black"/>

  <!-- Frame 2 -->
  <use href="#grid_template" x="120.5" y="20.5"/>
  <rect x="120.5+27" y="20.5+54" width="25" height="25" fill="black" stroke-width="1.5" stroke="black"/>

  <!-- Frame 3 -->
  <use href="#grid_template" x="220.5" y="20.5"/>
  <rect x="220.5" y="20.5+54" width="25" height="25" fill="black" stroke-width="1.5" stroke="black"/>

  <!-- Frame 4 -->
  <use href="#grid_template" x="320.5" y="20.5"/>
  <rect x="320.5" y="20.5+27" width="25" height="25" fill="black" stroke-width="1.5" stroke="black"/>

  <!-- Frame 5 -->
  <text x="460" y="80" font-family="Arial, sans-serif" font-size="70" font-weight="bold" fill="#D3D3D3" text-anchor="middle">?</text>
</svg>