<svg width="560" height="320" xmlns="http://www.w3.org/2000/svg"><style>.grid{stroke:#ccc;stroke-width:1}.bg{fill:#f9f9f9;stroke:#333;stroke-width:2}.shade{fill:#ddd}.shape{fill:#000}.q_mark{font-family:sans-serif;font-size:80px;fill:#aaa;text-anchor:middle;dominant-baseline:middle}.opt_label{font-family:sans-serif;font-size:20px;font-weight:bold;fill:#333;text-anchor:middle}</style><defs><g id="grid_template"><path d="M33,0 V99 M66,0 V99 M0,33 H99 M0,66 H99" class="grid"/></g><polygon id="triangle" points="0,-10 8.66,5 -8.66,5" class="shape"/></defs><g transform="translate(10,10)"><g id="step1"><rect width="99" height="99" class="bg"/><use href="#grid_template"/><rect x="33" y="0" width="33" height="33" class="shade"/><circle cx="82.5" cy="82.5" r="10" class="shape"/><use href="#triangle" transform="translate(82.5, 49.5) rotate(-135)"/></g></g><g transform="translate(120,10)"><g id="step2"><rect width="99" height="99" class="bg"/><use href="#grid_template"/><rect x="0" y="0" width="33" height="33" class="shade"/><circle cx="16.5" cy="49.5" r="10" class="shape"/><use href="#triangle" transform="translate(16.5, 82.5) rotate(0)"/></g></g><g transform="translate(230,10)"><g id="step3"><rect width="99" height="99" class="bg"/><use href="#grid_template"/><rect x="0" y="0" width="33" height="33" class="shade"/><circle cx="82.5" cy="16.5" r="10" class="shape"/><use href="#triangle" transform="translate(49.5, 16.5) rotate(45)"/></g></g><g transform="translate(340,10)"><g id="step4"><rect width="99" height="99" class="bg"/><use href="#grid_template"/><rect x="0" y="33" width="33" height="33" class="shade"/><circle cx="49.5" cy="82.5" r="10" class="shape"/><use href="#triangle" transform="translate(82.5, 82.5) rotate(135)"/></g></g><g transform="translate(450,10)"><g id="question_mark"><rect width="99" height="99" class="bg"/><text x="49.5" y="49.5" class="q_mark">?</text></g></g><text x="280" y="140" class="opt_label">בחר את התשובה הנכונה:</text><g transform="translate(50, 160)"><text x="49.5" y="-5" class="opt_label">א</text><g id="option_a"><rect width="99" height="99" class="bg"/><use href="#grid_template"/><rect x="66" y="66" width="33" height="33" class="shade"/><circle cx="16.5" cy="82.5" r="10" class="shape"/><use href="#triangle" transform="translate(16.5, 49.5) rotate(-90)"/></g></g><g transform="translate(180, 160)"><text x="49.5" y="-5" class="opt_label">ב</text><g id="option_b"><rect width="99" height="99" class="bg"/><use href="#grid_template"/><rect x="82.5" y="0" width="33" height="33" class="shade"/><circle cx="16.5" cy="16.5" r="10" class="shape"/><use href="#triangle" transform="translate(82.5, 49.5) rotate(0)"/></g></g><g transform="translate(310, 160)"><text x="49.5" y="-5" class="opt_label">ג</text><g id="option_c"><rect width="99" height="99" class="bg"/><use href="#grid_template"/><rect x="0" y="66" width="33" height="33" class="shade"/><circle cx="82.5" cy="49.5" r="10" class="shape"/><use href="#triangle" transform="translate(49.5, 82.5) rotate(90)"/></g></g><g transform="translate(440, 160)"><text x="49.5" y="-5" class="opt_label">ד</text><g id="option_d_correct"><rect width="99" height="99" class="bg"/><use href="#grid_template"/><rect x="0" y="33" width="33" height="33" class="shade"/><circle cx="16.5" cy="16.5" r="10" class="shape"/><use href="#triangle" transform="translate(16.5, 49.5) rotate(-90)"/></g></g></svg>