<svg width="650" height="150" viewBox="0 0 650 150" xmlns="http://www.w3.org/2000/svg"><defs><g id="grid"><path d="M 33,0 V 100 M 67,0 V 100 M 0,33 H 100 M 0,67 H 100" stroke="lightgray" stroke-width="1"/><rect x="0" y="0" width="100" height="100" fill="none" stroke="black" stroke-width="2"/></g><circle id="c" cx="16.5" cy="16.5" r="12" fill="black"/><rect id="s" x="4.5" y="4.5" width="24" height="24" fill="black"/><g id="cross"><path d="M 50,30 V 70 M 30,50 H 70" stroke="black" stroke-width="4"/></g><g id="q-mark"><text x="50" y="75" font-family="Arial, sans-serif" font-size="70" fill="gray" text-anchor="middle" dominant-baseline="middle">?</text></g></defs><g transform="translate(20, 25)"><use href="#grid"/><g transform="translate(0, 0)"><use href="#c"/></g><g transform="translate(67, 67)"><use href="#s"/></g><use href="#cross"/></g><g transform="translate(145, 25)"><use href="#grid"/><g transform="translate(33.5, 67)"><use href="#c"/></g><g transform="translate(33.5, 0)"><use href="#s"/></g><use href="#cross" transform="rotate(45 50 50)"/></g><g transform="translate(270, 25)"><use href="#grid"/><g transform="translate(67, 0)"><use href="#c"/></g><g transform="translate(0, 67)"><use href="#s"/></g><use href="#cross"/></g><g transform="translate(395, 25)"><use href="#grid"/><g transform="translate(0, 33.5)"><use href="#c"/></g><g transform="translate(67, 33.5)"><use href="#s"/></g><use href="#cross" transform="rotate(45 50 50)"/></g><g transform="translate(520, 25)"><rect x="0" y="0" width="100" height="100" fill="white" stroke="black" stroke-width="2"/><use href="#q-mark"/></g></svg>