<svg width="480" height="380" xmlns="http://www.w3.org/2000/svg" dir="rtl"><style>.question-text { font-family: Arial, sans-serif; font-size: 24px; font-weight: bold; text-anchor: middle; } .option-text { font-family: Arial, sans-serif; font-size: 20px; text-anchor: middle; } .shape-group circle { stroke: black; stroke-width: 3; fill: #f0f0f0; } .shape-group rect { fill: black; } .qm-box { stroke: #aaa; stroke-width: 2; stroke-dasharray: 5,5; fill: #fafafa; } .qm-text { font-family: Arial, sans-serif; font-size: 70px; fill: #aaa; text-anchor: middle; dominant-baseline: central; }</style><text x="240" y="40" class="question-text">מהי הצורה המשלימה את הסדרה?</text><g class="shape-group" transform="translate(60, 120)"><circle cx="0" cy="0" r="35" /><rect x="-7.5" y="-30" width="15" height="15" /></g><g class="shape-group" transform="translate(160, 120)"><circle cx="0" cy="0" r="35" /><rect x="15" y="-7.5" width="15" height="15" /></g><g class="shape-group" transform="translate(260, 120)"><circle cx="0" cy="0" r="35" /><rect x="-7.5" y="15" width="15" height="15" /></g><g transform="translate(360, 120)"><rect x="-40" y="-40" width="80" height="80" class="qm-box" rx="10"/><text x="0" y="0" class="qm-text">?</text></g><text x="60" y="230" class="option-text">א</text><g class="shape-group" transform="translate(60, 290)"><circle cx="0" cy="0" r="35" /><rect x="-7.5" y="-30" width="15" height="15" /></g><text x="160" y="230" class="option-text">ב</text><g class="shape-group" transform="translate(160, 290)"><circle cx="0" cy="0" r="35" /><rect x="-7.5" y="-7.5" width="15" height="15" /></g><text x="260" y="230" class="option-text">ג</text><g class="shape-group" transform="translate(260, 290)"><circle cx="0" cy="0" r="35" /><rect x="-30" y="-7.5" width="15" height="15" /></g><text x="360" y="230" class="option-text">ד</text><g class="shape-group" transform="translate(360, 290)"><circle cx="0" cy="0" r="35" /><rect x="15" y="-7.5" width="15" height="15" /><rect x="-7.5" y="15" width="15" height="15" /></g></svg>