<svg width="550" height="450" xmlns="http://www.w3.org/2000/svg" font-family="Arial, sans-serif"><style>.question { font-size: 24px; text-anchor: middle; font-family: 'Assistant', Arial, sans-serif; direction: rtl; } .shape { stroke: black; stroke-width: 3; fill: none; } .dot { fill: black; } .label { font-size: 20px; text-anchor: middle; font-weight: bold; font-family: 'Assistant', Arial, sans-serif; } .q-mark { font-size: 60px; font-weight: bold; text-anchor: middle; fill: #555; }</style><text x="275" y="40" class="question">מהי הצורה המשלימה את הסדרה?</text><rect x="50" y="80" width="80" height="80" class="shape" /><circle cx="70" cy="100" r="8" class="dot" /><text x="155" y="125" font-size="24px">→</text><rect x="180" y="80" width="80" height="80" class="shape" /><circle cx="240" cy="100" r="8" class="dot" /><text x="285" y="125" font-size="24px">→</text><rect x="310" y="80" width="80" height="80" class="shape" /><circle cx="370" cy="140" r="8" class="dot" /><text x="415" y="125" font-size="24px">→</text><rect x="440" y="80" width="80" height="80" class="shape" stroke-dasharray="5,5" /><text x="480" y="135" class="q-mark">?</text><line x1="20" y1="220" x2="530" y2="220" stroke="#ccc" stroke-width="2"/><text x="480" y="260" class="label">א</text><g transform="translate(440, 280)"><rect x="0" y="0" width="80" height="80" class="shape" /><circle cx="20" cy="60" r="8" class="dot" /></g><text x="350" y="260" class="label">ב</text><g transform="translate(310, 280)"><rect x="0" y="0" width="80" height="80" class="shape" /><circle cx="40" cy="40" r="8" class="dot" /></g><text x="220" y="260" class="label">ג</text><g transform="translate(180, 280)"><circle cx="40" cy="40" r="40" class="shape" /><rect x="20" y="20" width="40" height="40" class="shape" /></g><text x="90" y="260" class="label">ד</text><g transform="translate(50, 280)"><rect x="0" y="0" width="80" height="80" class="shape" /><circle cx="20" cy="20" r="8" class="dot" /></g></svg>