<svg width="512" height="512" xmlns="http://www.w3.org/2000/svg" font-family="Arial, Noto Sans Hebrew, sans-serif"><defs><pattern id="stripes" patternUnits="userSpaceOnUse" width="10" height="10"><path d="M-1,1 l2,-2 M0,10 l10,-10 M9,11 l2,-2" stroke="black" stroke-width="2"/></pattern></defs><rect width="100%" height="100%" fill="white"/><text x="50%" y="40" font-size="24" text-anchor="middle" direction="rtl" font-weight="bold">?מהי הצורה החסרה</text><g transform="translate(106, 80)"><rect x="0" y="0" width="300" height="300" fill="none" stroke="black" stroke-width="2"/><line x1="100" y1="0" x2="100" y2="300" stroke="black" stroke-width="2"/><line x1="200" y1="0" x2="200" y2="300" stroke="black" stroke-width="2"/><line x1="0" y1="100" x2="300" y2="100" stroke="black" stroke-width="2"/><line x1="0" y1="200" x2="300" y2="200" stroke="black" stroke-width="2"/><rect x="25" y="25" width="50" height="50" fill="black"/><circle cx="150" cy="50" r="25" fill="url(#stripes)" stroke="black" stroke-width="1"/><polygon points="250,25 225,75 275,75" fill="none" stroke="black" stroke-width="2"/><polygon points="50,125 25,175 75,175" fill="url(#stripes)" stroke="black" stroke-width="1"/><rect x="125" y="125" width="50" height="50" fill="none" stroke="black" stroke-width="2"/><circle cx="250" cy="150" r="25" fill="black"/><circle cx="50" cy="250" r="25" fill="none" stroke="black" stroke-width="2"/><polygon points="150,225 125,275 175,275" fill="black"/><text x="250" y="265" font-size="60" text-anchor="middle">?</text></g><g transform="translate(0, 420)"><g transform="translate(40, 0)"><text x="35" y="-10" font-size="20" text-anchor="middle" font-weight="bold">א</text><rect x="10" y="0" width="50" height="50" fill="url(#stripes)" stroke="black" stroke-width="1"/></g><g transform="translate(150, 0)"><text x="35" y="-10" font-size="20" text-anchor="middle" font-weight="bold">ב</text><circle cx="35" cy="25" r="25" fill="black"/></g><g transform="translate(260, 0)"><text x="35" y="-10" font-size="20" text-anchor="middle" font-weight="bold">ג</text><polygon points="35,0 10,50 60,50" fill="none" stroke="black" stroke-width="2"/></g><g transform="translate(370, 0)"><text x="35" y="-10" font-size="20" text-anchor="middle" font-weight="bold">ד</text><rect x="10" y="0" width="50" height="50" fill="black"/></g></g></svg>